<svg xmlns="http://www.w3.org/2000/svg" xmlns:xlink="http://www.w3.org/1999/xlink" viewBox="0 0 372.6 658"><defs><style>.cls-1{fill:url(#linear-gradient);}.cls-2{fill:url(#linear-gradient-2);}.cls-3{fill:none;stroke:#fff;stroke-miterlimit:10;stroke-width:1.15px;}</style><linearGradient id="linear-gradient" x1="-0.06" y1="109.05" x2="372.66" y2="109.05" gradientUnits="userSpaceOnUse"><stop offset="0" stop-color="#10898c"/><stop offset="1" stop-color="#67c6c0"/></linearGradient><linearGradient id="linear-gradient-2" x1="-0.06" y1="550.41" x2="372.66" y2="550.41" gradientUnits="userSpaceOnUse"><stop offset="0" stop-color="#67c6c0"/><stop offset="0.29" stop-color="#52b7b4"/><stop offset="0.87" stop-color="#1d9293"/><stop offset="1" stop-color="#10898c"/></linearGradient></defs><title>Plan de travail 1</title><g id="Calque_1" data-name="Calque 1"><path class="cls-1" d="M-.06,218.56s50.89-17.74,76.54-37.28c33.79-25.74,50.06-55.06,109.82-55.58,39-.34,63.46,13,103.19,31.5,47.75,22.24,83.17,25.11,83.17,25.11V.46C349.88-1.6-.06.46-.06.46Z"/><path class="cls-2" d="M-.06,509.22s74.58,62.81,142.66,49c62.41-12.66,112-59,135.69-75.62,2.16-1.51,61.33-41.62,94.37-40.43V658.4c-46.37-.06-119.81-.16-148.67-.28-106.69-.45-224,.55-224,.55Z"/></g><g id="Calque_2" data-name="Calque 2"><line class="cls-3" x1="178.59" y1="441.68" x2="186.17" y2="448.07"/><line class="cls-3" x1="194.72" y1="437.04" x2="185.42" y2="448.07"/></g></svg>