<?xml version="1.0" encoding="utf-8"?>
<!-- Generator: Adobe Illustrator 23.0.0, SVG Export Plug-In . SVG Version: 6.00 Build 0)  -->
<svg version="1.1" id="Calque_1" xmlns="http://www.w3.org/2000/svg" xmlns:xlink="http://www.w3.org/1999/xlink" x="0px" y="0px"
	 viewBox="0 0 46.6 46.6" style="enable-background:new 0 0 46.6 46.6;" xml:space="preserve">
<style type="text/css">
	.st0{fill:#10898C;}
	.st1{fill:#FFFFFF;}
</style>
<g>
	<circle class="st0" cx="23.3" cy="23.3" r="23.3"/>
	<circle class="st1" cx="13.2" cy="16.6" r="3"/>
	<circle class="st1" cx="33.5" cy="16.6" r="3"/>
	<path class="st1" d="M13.2,36.5c0,0,9.5-10.8,20.3,0c0,0-5.6-1.7-10.2-1.7C18.7,34.9,13.2,36.5,13.2,36.5z"/>
	<path class="st1" d="M12.6,23c0,0-1,1.1-1.1,2c-0.1,0.7,0.6,1.3,1.1,1.3s1.1-0.6,1.1-1.3C13.6,24,12.6,23,12.6,23z"/>
	<path class="st1" d="M36.3,26.1c0,0-0.8,1.1-0.9,2c0,0.7,0.4,1.3,0.8,1.3s0.9-0.6,0.8-1.3C37,27.1,36.3,26.1,36.3,26.1z"/>
	<path class="st1" d="M35.1,21.3c0,0-1,1.1-1.1,2c0,0.7,0.6,1.3,1,1.3c0.5,0,1.1-0.6,1.1-1.3C36,22.3,35.1,21.3,35.1,21.3z"/>
	<rect x="8.3" y="11.9" transform="matrix(0.917 -0.3989 0.3989 0.917 -3.9766 6.2044)" class="st1" width="9.1" height="1.5"/>
	<rect x="33.4" y="8.4" transform="matrix(0.3989 -0.917 0.917 0.3989 8.8245 38.9511)" class="st1" width="1.5" height="8.7"/>
</g>
</svg>
