<?xml version="1.0" encoding="utf-8"?>
<!-- Generator: Adobe Illustrator 23.0.0, SVG Export Plug-In . SVG Version: 6.00 Build 0)  -->
<svg version="1.1" id="Calque_1" xmlns="http://www.w3.org/2000/svg" xmlns:xlink="http://www.w3.org/1999/xlink" x="0px" y="0px"
	 viewBox="0 0 48.4 48.4" style="enable-background:new 0 0 48.4 48.4;" xml:space="preserve">
<style type="text/css">
	.st0{fill:url(#SVGID_1_);}
	.st1{enable-background:new    ;}
	.st2{fill:#FFFFFF;}
</style>
<radialGradient id="SVGID_1_" cx="24.2" cy="25.8" r="24.2" gradientTransform="matrix(1 0 0 -1 0 50)" gradientUnits="userSpaceOnUse">
	<stop  offset="0" style="stop-color:#10898C"/>
	<stop  offset="1" style="stop-color:#67C6C0"/>
</radialGradient>
<circle class="st0" cx="24.2" cy="24.2" r="24.2"/>
<g class="st1">
	<path class="st2" d="M22.8,20.1c0,0.2,0,0.4,0,0.5c0,0.1,0,0.2-0.1,0.3c0,0.1-0.1,0.1-0.1,0.2s-0.1,0-0.2,0c-0.1,0-0.2-0.1-0.4-0.2
		c-0.2-0.1-0.4-0.2-0.7-0.4c-0.3-0.1-0.7-0.3-1.1-0.4c-0.4-0.1-0.9-0.2-1.5-0.2c-0.6,0-1.2,0.1-1.7,0.3c-0.5,0.2-0.9,0.5-1.3,0.9
		s-0.6,0.8-0.8,1.4c-0.2,0.5-0.3,1.1-0.3,1.8c0,0.7,0.1,1.4,0.3,1.9s0.5,1,0.8,1.4c0.3,0.4,0.8,0.6,1.2,0.8c0.5,0.2,1,0.3,1.6,0.3
		c0.3,0,0.6,0,0.8-0.1c0.3-0.1,0.5-0.2,0.8-0.3v-2.9h-2.4c-0.1,0-0.2-0.1-0.3-0.2c-0.1-0.1-0.1-0.4-0.1-0.7c0-0.2,0-0.3,0-0.5
		c0-0.1,0-0.2,0.1-0.3c0-0.1,0.1-0.1,0.1-0.2c0,0,0.1-0.1,0.2-0.1h4.3c0.1,0,0.2,0,0.3,0.1c0.1,0,0.2,0.1,0.2,0.2s0.1,0.2,0.1,0.3
		c0,0.1,0,0.2,0,0.3v5c0,0.2,0,0.4-0.1,0.5c-0.1,0.1-0.2,0.3-0.4,0.3c-0.2,0.1-0.5,0.2-0.8,0.3c-0.3,0.1-0.6,0.2-1,0.2
		s-0.7,0.1-1,0.1s-0.7,0-1,0c-1,0-1.9-0.1-2.7-0.4c-0.8-0.3-1.5-0.7-2-1.3c-0.6-0.5-1-1.2-1.3-2c-0.3-0.8-0.4-1.7-0.4-2.7
		c0-1,0.2-2,0.5-2.8s0.8-1.5,1.3-2.1c0.6-0.6,1.3-1,2.1-1.3c0.8-0.3,1.7-0.5,2.7-0.5c0.5,0,1,0,1.5,0.1c0.4,0.1,0.8,0.2,1.2,0.3
		c0.3,0.1,0.6,0.2,0.8,0.3c0.2,0.1,0.4,0.2,0.5,0.3c0.1,0.1,0.2,0.2,0.2,0.4C22.7,19.5,22.8,19.8,22.8,20.1z"/>
	<path class="st2" d="M36.7,24.3c0,1-0.1,2-0.4,2.8c-0.3,0.8-0.6,1.5-1.2,2.1c-0.5,0.6-1.1,1-1.9,1.3c-0.8,0.3-1.6,0.5-2.6,0.5
		c-1,0-1.8-0.1-2.6-0.4c-0.7-0.3-1.3-0.6-1.8-1.2c-0.5-0.5-0.9-1.2-1.1-2c-0.2-0.8-0.4-1.8-0.4-2.9c0-1,0.1-1.9,0.4-2.7
		c0.3-0.8,0.6-1.5,1.2-2.1c0.5-0.6,1.1-1,1.9-1.3c0.8-0.3,1.6-0.5,2.6-0.5c1,0,1.8,0.1,2.5,0.4s1.3,0.6,1.8,1.2s0.9,1.2,1.1,2
		C36.6,22.3,36.7,23.2,36.7,24.3z M34,24.4c0-0.7-0.1-1.3-0.2-1.8c-0.1-0.5-0.3-1-0.5-1.4s-0.6-0.7-1-0.9c-0.4-0.2-0.9-0.3-1.6-0.3
		c-0.6,0-1.2,0.1-1.6,0.4c-0.4,0.2-0.8,0.6-1,0.9c-0.3,0.4-0.4,0.9-0.5,1.4c-0.1,0.5-0.2,1.1-0.2,1.7c0,0.7,0.1,1.3,0.2,1.9
		s0.3,1,0.5,1.4s0.6,0.7,1,0.9s0.9,0.3,1.6,0.3s1.2-0.1,1.6-0.3c0.4-0.2,0.8-0.6,1-1c0.3-0.4,0.4-0.9,0.5-1.4
		C33.9,25.6,34,25,34,24.4z"/>
</g>
</svg>
