<?xml version="1.0" encoding="utf-8"?>
<!-- Generator: Adobe Illustrator 23.0.0, SVG Export Plug-In . SVG Version: 6.00 Build 0)  -->
<svg version="1.1" id="Calque_1" xmlns="http://www.w3.org/2000/svg" xmlns:xlink="http://www.w3.org/1999/xlink" x="0px" y="0px"
	 viewBox="0 0 47.77 47.76" style="enable-background:new 0 0 47.77 47.76;" xml:space="preserve">
<style type="text/css">
	.st0{fill:#5AA8A0;}
</style>
<g>
	<path class="st0" d="M23.88,4.3c6.38,0,7.13,0.02,9.65,0.14c2.33,0.11,3.59,0.49,4.43,0.82c1.12,0.43,1.91,0.95,2.75,1.79
		c0.84,0.83,1.35,1.63,1.79,2.75c0.33,0.84,0.72,2.1,0.83,4.43c0.11,2.52,0.14,3.27,0.14,9.65s-0.03,7.13-0.14,9.65
		c-0.11,2.33-0.5,3.59-0.83,4.43c-0.43,1.12-0.95,1.91-1.79,2.75c-0.83,0.83-1.63,1.36-2.75,1.79c-0.84,0.33-2.1,0.72-4.43,0.82
		c-2.52,0.12-3.27,0.14-9.65,0.14c-6.37,0-7.13-0.02-9.65-0.14c-2.33-0.11-3.59-0.49-4.43-0.82c-1.12-0.43-1.91-0.95-2.75-1.79
		c-0.84-0.83-1.35-1.63-1.79-2.75c-0.33-0.84-0.72-2.1-0.83-4.43c-0.11-2.52-0.14-3.27-0.14-9.65s0.02-7.13,0.14-9.65
		c0.11-2.33,0.5-3.59,0.83-4.43C5.7,8.68,6.21,7.88,7.05,7.05C7.89,6.21,8.68,5.69,9.8,5.26c0.84-0.33,2.1-0.72,4.43-0.82
		C16.75,4.32,17.51,4.3,23.88,4.3 M23.88,0c-6.48,0-7.3,0.02-9.85,0.14c-2.54,0.11-4.28,0.52-5.8,1.11
		c-1.57,0.61-2.9,1.43-4.23,2.76C2.68,5.33,1.86,6.66,1.26,8.24c-0.59,1.52-0.99,3.26-1.11,5.8C0.03,16.58,0,17.39,0,23.88
		s0.03,7.3,0.14,9.85c0.12,2.54,0.52,4.28,1.11,5.8c0.61,1.57,1.43,2.9,2.76,4.23c1.33,1.33,2.66,2.15,4.23,2.76
		c1.52,0.59,3.25,1,5.8,1.11c2.55,0.12,3.36,0.14,9.85,0.14c6.49,0,7.3-0.02,9.85-0.14c2.54-0.11,4.28-0.52,5.8-1.11
		c1.57-0.61,2.9-1.43,4.23-2.76c1.33-1.33,2.15-2.66,2.75-4.23c0.59-1.52,1-3.26,1.11-5.8c0.11-2.55,0.14-3.36,0.14-9.85
		s-0.03-7.3-0.14-9.85c-0.12-2.54-0.52-4.28-1.11-5.8c-0.61-1.57-1.43-2.9-2.75-4.23c-1.33-1.33-2.66-2.14-4.23-2.76
		c-1.52-0.59-3.25-1-5.8-1.11C31.18,0.02,30.37,0,23.88,0L23.88,0z"/>
	<path class="st0" d="M23.88,11.62c-6.77,0-12.26,5.49-12.26,12.26s5.49,12.26,12.26,12.26c6.78,0,12.27-5.49,12.27-12.26
		S30.66,11.62,23.88,11.62z M23.88,31.84c-4.39,0-7.96-3.56-7.96-7.96s3.57-7.96,7.96-7.96c4.4,0,7.96,3.56,7.96,7.96
		S28.28,31.84,23.88,31.84z"/>
	<path class="st0" d="M39.5,11.13c0,1.58-1.28,2.87-2.87,2.87c-1.58,0-2.87-1.28-2.87-2.87c0-1.58,1.28-2.86,2.87-2.86
		C38.21,8.27,39.5,9.55,39.5,11.13z"/>
</g>
</svg>
