<?xml version="1.0" encoding="utf-8"?>
<!-- Generator: Adobe Illustrator 23.0.0, SVG Export Plug-In . SVG Version: 6.00 Build 0)  -->
<svg version="1.1" id="Calque_1" xmlns="http://www.w3.org/2000/svg" xmlns:xlink="http://www.w3.org/1999/xlink" x="0px" y="0px"
	 viewBox="0 0 48.07 48.07" style="enable-background:new 0 0 48.07 48.07;" xml:space="preserve">
<style type="text/css">
	.st0{fill:none;stroke:#5AA8A0;stroke-width:2.5465;stroke-miterlimit:10;}
</style>
<g>
	<path class="st0" d="M46.79,24.03c0-12.57-10.19-22.76-22.76-22.76c-12.57,0-22.76,10.19-22.76,22.76s10.19,22.76,22.76,22.76
		C36.6,46.79,46.79,36.6,46.79,24.03z"/>
	<path class="st0" d="M37.07,24.03c0-12.57-5.84-22.76-13.04-22.76c-7.2,0-13.04,10.19-13.04,22.76s5.84,22.76,13.04,22.76
		C31.23,46.79,37.07,36.6,37.07,24.03z"/>
	<line class="st0" x1="1.27" y1="24.03" x2="46.69" y2="24.03"/>
	<line class="st0" x1="24.03" y1="1.32" x2="24.03" y2="46.74"/>
	<path class="st0" d="M3.96,11.67c0,0,13.52,10.51,40.05,0"/>
	<path class="st0" d="M3.96,36.07c0,0,13.52-10.51,40.05,0"/>
</g>
</svg>
