<?xml version="1.0" encoding="utf-8"?>
<!-- Generator: Adobe Illustrator 23.0.0, SVG Export Plug-In . SVG Version: 6.00 Build 0)  -->
<svg version="1.1" id="Calque_1" xmlns="http://www.w3.org/2000/svg" xmlns:xlink="http://www.w3.org/1999/xlink" x="0px" y="0px"
	 viewBox="0 0 42.86 49.05" style="enable-background:new 0 0 42.86 49.05;" xml:space="preserve">
<style type="text/css">
	.st0{fill:#9B9B9B;stroke:#9B9B9B;stroke-width:1.7625;stroke-miterlimit:10;}
</style>
<g>
	<g>
		<path class="st0" d="M27.95,23.84c2.63-3.24,4.27-7.95,4.27-11.51c0-6.31-4.86-11.44-10.83-11.44S10.56,6.01,10.56,12.32
			c0,3.57,1.64,8.28,4.27,11.51C-1.07,29.48,0.6,45,1.3,48.17h40.18C43.85,37.33,37.58,26.81,27.95,23.84z M21.5,2.87
			c7.17,0,8.93,6.83,8.93,6.83c0.21,0.83,0.34,1.7,0.34,2.61c0,5.42-4.2,13.73-9.38,13.73c-4.25,0-8.99-6.61-9.15-12.8
			c-0.02-0.9,0-1.78,0.06-2.61C12.58,7.22,16.15,2.87,21.5,2.87z M40.28,46.64H2.5C1.41,39.48,4.19,32.61,9.3,28.46
			c0.31,2.14,0.91,4.2,1.8,6.15c-2.23,1.48-3.28,4.45-2.37,7.18l1.2,3.59l2.72-1.01l-0.48-1.44l-1.37,0.5l-0.72-2.16
			c-0.79-2.38,0.4-5,2.65-5.84c2.25-0.84,4.73,0.42,5.53,2.8l0.71,2.16l-1.37,0.5l0.48,1.44l2.72-1.01l-1.2-3.6
			c-1.04-3.13-4.26-4.79-7.22-3.78c-0.93-2.05-1.53-4.23-1.77-6.49c1.6-1.07,3.4-1.89,5.35-2.4c1.58,1.52,3.41,2.49,5.41,2.49
			s3.83-0.97,5.41-2.49c2.27,0.6,4.34,1.61,6.14,2.97c-0.42,2.03-1.13,3.96-2.11,5.74c-0.25-0.07-0.5-0.13-0.78-0.13
			c-1.59,0-2.89,1.37-2.89,3.05c0,1.68,1.3,3.05,2.89,3.05c1.59,0,2.89-1.37,2.89-3.05c0-0.85-0.33-1.61-0.86-2.17
			c0.94-1.72,1.65-3.55,2.11-5.47C38.84,33.29,41.31,39.85,40.28,46.64z M31.49,36.73c0,0.84-0.65,1.53-1.45,1.53
			s-1.45-0.68-1.45-1.53c0-0.85,0.65-1.53,1.45-1.53C30.85,35.2,31.49,35.89,31.49,36.73z"/>
	</g>
</g>
</svg>
