<?xml version="1.0" encoding="utf-8"?>
<!-- Generator: Adobe Illustrator 23.0.0, SVG Export Plug-In . SVG Version: 6.00 Build 0)  -->
<svg version="1.1" id="Calque_1" xmlns="http://www.w3.org/2000/svg" xmlns:xlink="http://www.w3.org/1999/xlink" x="0px" y="0px"
	 viewBox="0 0 46.62 46.62" style="enable-background:new 0 0 46.62 46.62;" xml:space="preserve">
<style type="text/css">
	.st0{fill:#565656;}
	.st1{fill:#FFFFFF;}
</style>
<g>
	<circle class="st0" cx="23.31" cy="23.31" r="23.31"/>
	<circle class="st1" cx="13.22" cy="16.6" r="3.03"/>
	<circle class="st1" cx="33.52" cy="16.6" r="3.03"/>
	<path class="st1" d="M13.22,36.52c0,0,9.53-10.77,20.3,0c0,0-5.59-1.7-10.21-1.66C18.69,34.89,13.22,36.52,13.22,36.52z"/>
	<path class="st1" d="M12.63,22.95c0,0-1.03,1.08-1.1,1.98c-0.05,0.69,0.56,1.26,1.05,1.26s1.11-0.64,1.07-1.34
		C13.61,23.96,12.63,22.95,12.63,22.95z"/>
	<path class="st1" d="M36.26,26.14c0,0-0.81,1.08-0.86,1.98c-0.04,0.69,0.44,1.26,0.82,1.26s0.86-0.64,0.84-1.34
		C37.03,27.15,36.26,26.14,36.26,26.14z"/>
	<path class="st1" d="M35.06,21.32c0,0-1.03,1.08-1.1,1.98c-0.05,0.69,0.56,1.26,1.05,1.26c0.5,0,1.11-0.64,1.07-1.34
		C36.04,22.34,35.06,21.32,35.06,21.32z"/>
	<rect x="8.35" y="11.9" transform="matrix(0.917 -0.3989 0.3989 0.917 -3.9778 6.2021)" class="st1" width="9.14" height="1.52"/>
	
		<rect x="29.77" y="11.99" transform="matrix(-0.917 -0.3989 0.3989 -0.917 60.3247 38.0468)" class="st1" width="8.7" height="1.52"/>
</g>
</svg>
