<?xml version="1.0" encoding="utf-8"?>
<!-- Generator: Adobe Illustrator 23.0.0, SVG Export Plug-In . SVG Version: 6.00 Build 0)  -->
<svg version="1.1" id="Calque_1" xmlns="http://www.w3.org/2000/svg" xmlns:xlink="http://www.w3.org/1999/xlink" x="0px" y="0px"
	 viewBox="0 0 48.59 48.58" style="enable-background:new 0 0 48.59 48.58;" xml:space="preserve">
<style type="text/css">
	.st0{fill:#5AA8A0;}
</style>
<path class="st0" d="M45.9,0H2.69C1.2,0,0,1.2,0,2.68l0,0V45.9c0,1.48,1.2,2.68,2.68,2.68h0h23.26V29.77h-6.33v-7.33h6.33v-5.41
	c0-6.28,3.84-9.69,9.43-9.69c1.89-0.01,3.78,0.09,5.66,0.29v6.56h-3.88c-3.05,0-3.64,1.45-3.64,3.57v4.68h7.27l-0.95,7.33h-6.32
	v18.81H45.9c1.48,0,2.68-1.2,2.68-2.68l0,0V2.68C48.59,1.2,47.39,0,45.9,0L45.9,0z"/>
</svg>
