<?xml version="1.0" encoding="utf-8"?>
<!-- Generator: Adobe Illustrator 23.0.0, SVG Export Plug-In . SVG Version: 6.00 Build 0)  -->
<svg version="1.1" id="Calque_1" xmlns="http://www.w3.org/2000/svg" xmlns:xlink="http://www.w3.org/1999/xlink" x="0px" y="0px"
	 viewBox="0 0 42.98 49.19" style="enable-background:new 0 0 42.98 49.19;" xml:space="preserve">
<style type="text/css">
	.st0{fill:#4AB4C0;stroke:#4AB4C0;stroke-width:1.7674;stroke-miterlimit:10;}
</style>
<g>
	<g>
		<path class="st0" d="M28.03,23.9c2.63-3.25,4.28-7.97,4.28-11.55c0-6.33-4.87-11.47-10.86-11.47S10.59,6.03,10.59,12.36
			c0,3.58,1.64,8.3,4.28,11.55C-1.07,29.56,0.6,45.13,1.3,48.3h40.29C43.97,37.43,37.68,26.88,28.03,23.9z M21.56,2.88
			c7.19,0,8.95,6.85,8.95,6.85c0.21,0.83,0.34,1.71,0.34,2.61c0,5.43-4.21,13.77-9.41,13.77c-4.26,0-9.02-6.63-9.17-12.84
			c-0.02-0.9,0-1.78,0.06-2.62C12.62,7.24,16.19,2.88,21.56,2.88z M40.39,46.77H2.51C1.41,39.59,4.2,32.7,9.32,28.54
			c0.31,2.15,0.91,4.21,1.8,6.17c-2.24,1.48-3.29,4.46-2.38,7.2l1.2,3.6l2.73-1.02l-0.48-1.45l-1.37,0.5l-0.72-2.17
			c-0.8-2.39,0.4-5.01,2.66-5.85c2.25-0.84,4.75,0.42,5.54,2.81l0.72,2.17l-1.37,0.5l0.48,1.45l2.73-1.02l-1.2-3.61
			c-1.04-3.14-4.27-4.81-7.24-3.79c-0.94-2.05-1.54-4.24-1.78-6.51c1.61-1.07,3.41-1.89,5.36-2.41c1.58,1.52,3.42,2.49,5.43,2.49
			s3.84-0.97,5.43-2.49c2.28,0.6,4.36,1.61,6.16,2.98c-0.42,2.03-1.13,3.97-2.12,5.76c-0.25-0.07-0.5-0.13-0.78-0.13
			c-1.6,0-2.9,1.37-2.9,3.06s1.3,3.06,2.9,3.06c1.6,0,2.9-1.37,2.9-3.06c0-0.85-0.33-1.61-0.87-2.17c0.95-1.73,1.65-3.56,2.12-5.49
			C38.95,33.38,41.42,39.96,40.39,46.77z M31.58,36.83c0,0.84-0.65,1.53-1.45,1.53s-1.45-0.68-1.45-1.53s0.65-1.53,1.45-1.53
			C30.94,35.3,31.58,35.99,31.58,36.83z"/>
	</g>
</g>
</svg>
