<?xml version="1.0" encoding="utf-8"?>
<!-- Generator: Adobe Illustrator 23.0.0, SVG Export Plug-In . SVG Version: 6.00 Build 0)  -->
<svg version="1.1" id="Calque_1" xmlns="http://www.w3.org/2000/svg" xmlns:xlink="http://www.w3.org/1999/xlink" x="0px" y="0px"
	 viewBox="0 0 46.03 47.31" style="enable-background:new 0 0 46.03 47.31;" xml:space="preserve">
<style type="text/css">
	.st0{fill:#10898C;}
</style>
<g>
	<path class="st0" d="M23.01,31.94c-4.58,0-8.28-3.7-8.28-8.28s3.7-8.28,8.28-8.28s8.28,3.7,8.28,8.28S27.59,31.94,23.01,31.94z
		 M40.59,25.96c0.09-0.76,0.17-1.53,0.17-2.31c0-0.78-0.07-1.55-0.17-2.31l5-3.92c0.45-0.35,0.58-0.99,0.28-1.51l-4.73-8.2
		C40.85,7.22,40.23,7,39.7,7.22l-5.89,2.38c-1.22-0.93-2.55-1.73-4-2.33l-0.89-6.27C28.82,0.44,28.33,0,27.74,0h-9.46
		c-0.59,0-1.08,0.44-1.17,0.99l-0.89,6.27c-1.44,0.6-2.78,1.38-4,2.33L6.33,7.22c-0.53-0.2-1.15,0-1.44,0.51l-4.73,8.2
		c-0.3,0.51-0.17,1.15,0.28,1.51l4.99,3.92c-0.09,0.76-0.17,1.53-0.17,2.31c0,0.78,0.07,1.55,0.17,2.31l-4.99,3.92
		c-0.45,0.35-0.58,0.99-0.28,1.51l4.73,8.2c0.3,0.51,0.91,0.72,1.44,0.51l5.89-2.38c1.22,0.93,2.55,1.73,4,2.33l0.89,6.27
		c0.09,0.56,0.58,0.99,1.17,0.99h9.46c0.59,0,1.08-0.44,1.17-0.99l0.89-6.27c1.44-0.6,2.78-1.38,4-2.33l5.89,2.38
		c0.53,0.2,1.15,0,1.44-0.51l4.73-8.2c0.3-0.51,0.17-1.15-0.28-1.51L40.59,25.96z"/>
</g>
</svg>
