<?xml version="1.0" encoding="utf-8"?>
<!-- Generator: Adobe Illustrator 23.0.0, SVG Export Plug-In . SVG Version: 6.00 Build 0)  -->
<svg version="1.1" id="Calque_1" xmlns="http://www.w3.org/2000/svg" xmlns:xlink="http://www.w3.org/1999/xlink" x="0px" y="0px"
	 viewBox="0 0 43.34 48.16" style="enable-background:new 0 0 43.34 48.16;" xml:space="preserve">
<style type="text/css">
	.st0{fill:#4AB4C0;}
	.st1{fill:#F9F9F9;}
	.st2{fill:none;stroke:#4AB4C0;stroke-width:2.5559;stroke-miterlimit:10;}
</style>
<g>
	<path class="st0" d="M35.13,7.61H8.2c-4.53,0-8.2,3.67-8.2,8.2v24.14c0,4.53,3.67,8.2,8.2,8.2h26.93c4.52,0,8.2-3.67,8.2-8.2V15.82
		C43.34,11.28,39.65,7.61,35.13,7.61z M40.49,38.38c0,3.94-3.21,7.11-7.13,7.11H9.98c-3.94,0-7.13-3.18-7.13-7.11V17.4
		c0-3.94,3.19-7.11,7.13-7.11h23.38c3.92,0,7.13,3.18,7.13,7.11V38.38z"/>
	<g>
		<g>
			<path class="st1" d="M11.97,2.16c0,4.15,0,8.3,0,12.44c0,2.88,4.47,2.88,4.47,0c0-4.15,0-8.3,0-12.44
				C16.44-0.72,11.97-0.72,11.97,2.16L11.97,2.16z"/>
		</g>
	</g>
	<g>
		<g>
			<path class="st0" d="M12.64,2.4c0,3.99,0,7.98,0,11.97c0,2.02,3.13,2.02,3.13,0c0-3.99,0-7.98,0-11.97
				C15.77,0.38,12.64,0.38,12.64,2.4L12.64,2.4z"/>
		</g>
	</g>
	<g>
		<g>
			<path class="st1" d="M27.37,2.16c0,4.15,0,8.3,0,12.44c0,2.88,4.47,2.88,4.47,0c0-4.15,0-8.3,0-12.44
				C31.85-0.72,27.37-0.72,27.37,2.16L27.37,2.16z"/>
		</g>
	</g>
	<g>
		<g>
			<path class="st0" d="M28.04,2.4c0,3.99,0,7.98,0,11.97c0,2.02,3.13,2.02,3.13,0c0-3.99,0-7.98,0-11.97
				C31.17,0.38,28.04,0.38,28.04,2.4L28.04,2.4z"/>
		</g>
	</g>
	<line class="st2" x1="14.21" y1="28.24" x2="20.95" y2="34.99"/>
	<line class="st2" x1="19.96" y1="34.22" x2="30.19" y2="23.98"/>
</g>
</svg>
