<?xml version="1.0" encoding="utf-8"?>
<!-- Generator: Adobe Illustrator 23.0.0, SVG Export Plug-In . SVG Version: 6.00 Build 0)  -->
<svg version="1.1" id="Calque_1" xmlns="http://www.w3.org/2000/svg" xmlns:xlink="http://www.w3.org/1999/xlink" x="0px" y="0px"
	 viewBox="0 0 43.7 48.56" style="enable-background:new 0 0 43.7 48.56;" xml:space="preserve">
<style type="text/css">
	.st0{fill:#9B9B9B;}
	.st1{fill:#F9F9F9;}
	.st2{fill:none;stroke:#9B9B9B;stroke-width:2.5772;stroke-miterlimit:10;}
</style>
<g>
	<path class="st0" d="M35.43,7.68H8.27C3.7,7.68,0,11.38,0,15.95v24.34c0,4.57,3.7,8.27,8.27,8.27h27.16c4.56,0,8.27-3.7,8.27-8.27
		V15.95C43.7,11.38,39.98,7.68,35.43,7.68z M40.83,38.7c0,3.97-3.23,7.17-7.19,7.17H10.06c-3.97,0-7.19-3.2-7.19-7.17V17.54
		c0-3.97,3.22-7.17,7.19-7.17h23.58c3.95,0,7.19,3.2,7.19,7.17V38.7z"/>
	<g>
		<g>
			<path class="st1" d="M12.07,2.18c0,4.18,0,8.36,0,12.55c0,2.9,4.51,2.91,4.51,0c0-4.18,0-8.36,0-12.55
				C16.58-0.72,12.07-0.73,12.07,2.18L12.07,2.18z"/>
		</g>
	</g>
	<g>
		<g>
			<path class="st0" d="M12.75,2.42c0,4.02,0,8.05,0,12.07c0,2.03,3.16,2.04,3.16,0c0-4.02,0-8.05,0-12.07
				C15.9,0.38,12.75,0.38,12.75,2.42L12.75,2.42z"/>
		</g>
	</g>
	<g>
		<g>
			<path class="st1" d="M27.6,2.18c0,4.18,0,8.36,0,12.55c0,2.9,4.51,2.91,4.51,0c0-4.18,0-8.36,0-12.55
				C32.11-0.72,27.6-0.73,27.6,2.18L27.6,2.18z"/>
		</g>
	</g>
	<g>
		<g>
			<path class="st0" d="M28.28,2.42c0,4.02,0,8.05,0,12.07c0,2.03,3.16,2.04,3.16,0c0-4.02,0-8.05,0-12.07
				C31.43,0.38,28.28,0.38,28.28,2.42L28.28,2.42z"/>
		</g>
	</g>
	<line class="st2" x1="14.32" y1="28.48" x2="21.13" y2="35.28"/>
	<line class="st2" x1="20.13" y1="34.5" x2="30.45" y2="24.18"/>
</g>
</svg>
